<svg width="502" height="116" viewBox="0 0 502 116" fill="none" xmlns="http://www.w3.org/2000/svg">
<g clip-path="url(#clip0_2_8)">
<path d="M502 0H0V116H502V0Z" fill="white"/>
<path d="M39.2306 68.8975C36.0224 68.8975 33.2371 70.6629 31.7246 73.2564C30.9748 74.5423 30.5127 76.0244 30.5127 77.6154C30.5127 82.419 34.4227 86.3333 39.2306 86.3333C44.0385 86.3333 47.9485 82.419 47.9485 77.6154C47.9485 76.0244 47.4908 74.5423 46.7367 73.2564C45.2241 70.6629 42.4432 68.8975 39.2306 68.8975Z" fill="#D61111"/>
<path d="M100.256 68.8975C97.0478 68.8975 94.2625 70.6629 92.7499 73.2564C92.0002 74.5423 91.5381 76.0244 91.5381 77.6154C91.5381 82.419 95.4481 86.3333 100.256 86.3333C105.064 86.3333 108.974 82.419 108.974 77.6154C108.974 76.0244 108.516 74.5423 107.762 73.2564C106.249 70.6629 103.469 68.8975 100.256 68.8975Z" fill="#D61111"/>
<path d="M126.41 60.1794V55.8204L100.256 48.3448L69.7433 29.6667H21.7948V34.0256H47.9485V38.3846H0V42.7436H52.3075V47.1025H8.71791V51.4615H30.5127V55.8204H21.7948V60.1794H4.35896V64.5383H26.1537V68.8973H21.7948V73.2563H8.71791V77.6152H26.1537C26.1537 76.0809 26.4675 74.625 26.9557 73.2563C28.7604 68.1911 33.5465 64.5383 39.2306 64.5383C44.919 64.5383 49.7009 68.1911 51.5055 73.2563C51.9893 74.625 52.3075 76.0809 52.3075 77.6152H87.1791C87.1791 76.0809 87.4929 74.625 87.9811 73.2563C89.7858 68.1911 94.5719 64.5383 100.256 64.5383C105.944 64.5383 110.726 68.1911 112.531 73.2563C113.015 74.625 113.333 76.0809 113.333 77.6152H126.41V73.2563H130.769V60.1794H126.41Z" fill="#D61111"/>
<path d="M161.057 77.0001C160.801 76.6801 160.246 75.4321 159.393 73.2561C158.561 71.0588 157.579 68.5841 156.449 65.8321C155.339 63.0588 154.358 60.9574 153.505 59.5281V77.0001H142.913V39.4961H153.505V57.4481L161.473 39.4961H172.129L162.593 57.0961C163.211 57.5228 164.033 58.6854 165.057 60.5841C166.081 62.4828 167.041 64.4774 167.937 66.5681C168.833 68.6588 169.761 70.7601 170.721 72.8721C171.681 74.9628 172.385 76.3388 172.833 77.0001H161.057ZM179.338 36.9041L174.09 31.6241V30.5041L179.338 25.2561H180.554L186.026 30.5041V31.6241L180.554 36.9041H179.338ZM174.602 77.0001V39.4961H185.514V77.0001H174.602ZM200.409 64.5201V77.0001H189.785V39.4961H194.009C195.033 39.4961 196.559 39.4534 198.585 39.3681C200.612 39.2614 202.287 39.2081 203.609 39.2081C208.217 39.2081 211.652 40.2214 213.913 42.2481C216.196 44.2748 217.337 47.3788 217.337 51.5601C217.337 54.0348 216.793 56.2321 215.705 58.1521C214.639 60.0721 213.22 61.5974 211.449 62.7281C212.409 62.9628 213.231 63.5068 213.913 64.3601C214.617 65.2134 215.161 66.2268 215.545 67.4001C215.929 68.5521 216.26 69.7254 216.537 70.9201C216.836 72.0934 217.167 73.2561 217.529 74.4081C217.913 75.5601 218.329 76.4241 218.777 77.0001H206.969C206.735 76.7014 206.553 75.8694 206.425 74.5041C206.297 73.1174 206.116 71.4641 205.881 69.5441C205.668 67.6028 205.359 65.9814 204.953 64.6801C204.911 64.6801 204.857 64.6801 204.793 64.6801C204.388 64.6801 203.951 64.6801 203.481 64.6801C203.033 64.6588 202.639 64.6374 202.297 64.6161C201.956 64.5948 201.593 64.5734 201.209 64.5521C200.847 64.5308 200.58 64.5201 200.409 64.5201ZM200.409 58.5681H201.433C201.967 58.5681 202.415 58.5468 202.777 58.5041C203.14 58.4614 203.535 58.3868 203.961 58.2801C204.409 58.1521 204.772 57.9601 205.049 57.7041C205.348 57.4481 205.625 57.1174 205.881 56.7121C206.137 56.3068 206.329 55.7841 206.457 55.1441C206.585 54.5041 206.649 53.7574 206.649 52.9041V50.3761C206.649 48.5201 206.159 47.2294 205.177 46.5041C204.217 45.7574 202.831 45.3841 201.017 45.3841H200.409V58.5681ZM239.219 77.0001L237.779 71.0161H228.691L227.475 77.0001H218.067L227.827 42.0881L227.059 39.4961H240.275L250.963 77.0001H239.219ZM232.819 50.5041L230.003 64.4881H236.211L232.819 50.5041ZM252.225 77.0001V39.4961H262.817V68.4241H272.353V77.0001H252.225ZM293.688 77.0001L292.248 71.0161H283.16L281.944 77.0001H272.536L282.296 42.0881L281.528 39.4961H294.744L305.432 77.0001H293.688ZM287.288 50.5041L284.472 64.4881H290.68L287.288 50.5041ZM342.386 73.6081C339.676 76.3174 336.455 77.6721 332.722 77.6721C330.076 77.6721 327.783 77.2134 325.842 76.2961C323.922 75.3788 322.396 74.0561 321.266 72.3281C320.135 70.6001 319.303 68.6268 318.77 66.4081C318.258 64.1894 318.002 61.6614 318.002 58.8241C318.002 56.7121 318.108 54.8134 318.322 53.1281C318.556 51.4428 318.93 49.8321 319.442 48.2961C319.954 46.7601 320.658 45.4374 321.554 44.3281C322.45 43.1974 323.548 42.2161 324.85 41.3841C326.151 40.5521 327.73 39.9334 329.586 39.5281C331.442 39.1014 333.554 38.8881 335.922 38.8881C336.988 38.8881 338.002 38.9521 338.962 39.0801C339.943 39.2081 340.775 39.3681 341.458 39.5601C342.14 39.7308 342.78 39.9548 343.378 40.2321C343.996 40.4881 344.476 40.7228 344.818 40.9361C345.18 41.1281 345.511 41.3414 345.81 41.5761C346.108 41.8108 346.29 41.9708 346.354 42.0561C346.439 42.1414 346.503 42.2054 346.546 42.2481L346.066 49.6081H340.242L338.418 45.3521C337.948 45.0961 337.191 44.9681 336.146 44.9681C335.292 44.9681 334.588 45.0428 334.034 45.1921C333.479 45.3414 332.924 45.6614 332.37 46.1521C331.836 46.6214 331.41 47.3148 331.09 48.2321C330.791 49.1281 330.546 50.3548 330.354 51.9121C330.162 53.4481 330.066 55.3254 330.066 57.5441C330.066 62.1734 330.311 65.6081 330.802 67.8481C331.314 70.0881 332.327 71.2081 333.842 71.2081C334.588 71.2081 335.218 71.1441 335.73 71.0161C336.242 70.8668 336.722 70.6108 337.17 70.2481C337.618 69.8641 337.948 69.3094 338.162 68.5841C338.375 67.8374 338.482 66.8881 338.482 65.7361V62.4721L334.258 61.5121V54.9841H348.498L348.466 77.0001H342.77L342.386 73.6081ZM356.526 36.9041L351.278 31.6241V30.5041L356.526 25.2561H357.742L363.214 30.5041V31.6241L357.742 36.9041H356.526ZM351.79 77.0001V39.4961H362.702V77.0001H351.79ZM373.021 77.0001V47.9761H365.533V39.4961H391.325V47.9761H383.837V77.0001H373.021ZM405.331 77.6721C403.688 77.6721 402.152 77.5228 400.723 77.2241C399.315 76.9468 398.131 76.5734 397.171 76.1041C396.211 75.6348 395.421 75.1868 394.803 74.7601C394.205 74.3334 393.704 73.9068 393.299 73.4801L394.099 65.7041C394.973 66.8774 396.147 67.9014 397.619 68.7761C399.091 69.6294 400.68 70.0561 402.387 70.0561C404.093 70.0561 405.32 69.8748 406.067 69.5121C406.835 69.1494 407.219 68.4881 407.219 67.5281C407.219 66.5041 405.331 77.6721 405.907 64.9041C405.053 64.1788 403.571 63.3041 401.459 62.2801C400.691 61.8961 400.04 61.5548 399.507 61.2561C398.973 60.9361 398.259 60.4241 397.363 59.7201C396.488 58.9948 395.773 58.2481 395.219 57.4801C394.664 56.6908 394.173 55.6881 393.747 54.4721C393.32 53.2348 393.107 51.9121 393.107 50.5041C393.107 42.8881 397.405 39.0801 406.003 39.0801C407.368 39.0801 408.648 39.2294 409.843 39.5281C411.059 39.8054 412.008 40.1148 412.691 40.4561C413.373 40.7974 413.992 41.2028 414.547 41.6721C415.123 42.1201 415.485 42.4401 415.635 42.6321C415.784 42.8028 415.891 42.9414 415.955 43.0481L414.355 49.2241C413.523 48.2428 412.477 47.5174 411.219 47.0481C409.981 46.5574 408.797 46.3121 407.667 46.3121C404.936 46.3121 403.571 47.1654 403.571 48.8721C403.571 49.3201 403.656 49.7254 403.827 50.0881C403.997 50.4508 404.275 50.7814 404.659 51.0801C405.043 51.3788 405.395 51.6348 405.715 51.8481C406.056 52.0614 406.515 52.3281 407.091 52.6481C407.688 52.9468 408.136 53.1921 408.435 53.3841C411.549 54.7068 413.832 56.2748 415.283 58.0881C416.755 59.9014 417.491 62.1094 417.491 64.7121C417.491 68.9361 416.445 72.1574 414.355 74.3761C412.285 76.5734 409.277 77.6721 405.331 77.6721ZM425.713 36.9041L420.465 31.6241V30.5041L425.713 25.2561H426.929L432.401 30.5041V31.6241L426.929 36.9041H425.713ZM420.977 77.0001V39.4961H431.889V77.0001H420.977ZM446.432 77.0001H436.256V42.5041L434.688 39.4961H446.464L452.352 51.6561L457.984 63.7841L456.416 49.5441V39.4961H466.624V77.0001H456.864L449.248 62.1841L444.544 52.9041L446.432 65.1921V77.0001Z" fill="#D61111"/>
</g>
<defs>
<clipPath id="clip0_2_8">
<rect width="502" height="116" fill="white"/>
</clipPath>
</defs>
</svg>
